<svg width="28" height="28" viewBox="0 0 24 24" fill="#00c27a" xmlns="http://www.w3.org/2000/svg">
  <path d="M20.447 20.452H17.2v-5.569c0-1.328-.027-3.037-1.852-3.037-1.853 0-2.136 1.445-2.136 2.939v5.667H9.069V9h3.112v1.561h.045c.434-.823 1.494-1.69 3.073-1.69 3.287 0 3.894 2.164 3.894 4.977v6.604zM5.337 7.433a1.81 1.81 0 11-.001-3.62 1.81 1.81 0 01.001 3.62zM6.92 20.452H3.752V9H6.92v11.452zM22.225 0H1.771C.792 0 0 .774 0 1.729v20.542C0 23.226.792 24 1.771 24h20.451C23.2 24 24 23.226 24 22.271V1.729C24 .774 23.2 0 22.225 0z"/>
</svg>
